<svg width="30" height="30" viewBox="0 0 30 30" fill="none" xmlns="http://www.w3.org/2000/svg">
<path d="M2 27.5L6.13636 21H23.8636L28 27.5H2Z" fill="#012E29"/>
<path d="M12.894 21.3041L12.8961 21.3066C13.4516 21.9873 14.1183 22.7676 14.6283 23.3344L14.9996 23.747L15.3713 23.3349C16.1685 22.4511 17.0894 21.3381 17.8817 20.3271L17.8829 20.3256C18.2921 19.7994 18.726 19.2679 19.1628 18.7327C20.0122 17.6921 20.8728 16.6377 21.5856 15.582C22.676 13.9673 23.5 12.2443 23.5 10.3511C23.5 5.48364 19.7216 1.5 15 1.5C10.2777 1.5 6.5 5.48429 6.49998 10.3675L6.50002 10.3716C6.517 12.4587 7.48373 14.3809 8.73437 16.1638C9.55475 17.3333 10.5345 18.4904 11.4839 19.6117C11.9704 20.1863 12.449 20.7515 12.894 21.3041Z" fill="#012E29" stroke="#F0F2F2"/>
<path d="M17 10C17 8.89697 16.103 8 15 8C13.897 8 13 8.89697 13 10C13 11.103 13.897 12 15 12C16.103 12 17 11.103 17 10Z" fill="#F9F9F9"/>
</svg>
