<svg width="30" height="30" viewBox="0 0 30 30" fill="none" xmlns="http://www.w3.org/2000/svg">
<path fill-rule="evenodd" clip-rule="evenodd" d="M1.00018 5C0.447898 5 0.000183105 5.44772 0.000183105 6V24C0.000183105 24.5523 0.447899 25 1.00018 25H29.0002C29.5525 25 30.0002 24.5523 30.0002 24V6C30.0002 5.44772 29.5525 5 29.0002 5H1.00018ZM23.1918 8.54898L23.5043 9.07002C23.8215 9.59908 24.3652 9.95213 24.9775 10.0268L25.5806 10.1003L25.5271 10.7055C25.4728 11.32 25.7051 11.9251 26.1566 12.3454L26.6013 12.7594L26.2023 13.2176C25.7972 13.6828 25.6294 14.3089 25.7477 14.9144L25.8641 15.5106L25.2721 15.6468C24.6708 15.785 24.1671 16.193 23.9069 16.7523L23.6506 17.3031L23.0916 17.0653C22.5239 16.8237 21.8766 16.8576 21.3373 17.1572L20.8062 17.4522L20.4938 16.9312C20.1765 16.4021 19.6329 16.049 19.0205 15.9744L18.4174 15.9009L18.4709 15.2957C18.5252 14.6812 18.2929 14.0761 17.8414 13.6557L17.3967 13.2418L17.7957 12.7836C18.2008 12.3184 18.3686 11.6923 18.2503 11.0868L18.1339 10.4905L18.726 10.3544C19.3272 10.2162 19.8309 9.80822 20.0911 9.24889L20.3474 8.69805L20.9064 8.93593C21.4741 9.17747 22.1214 9.14354 22.6607 8.84399L23.1918 8.54898ZM22.7062 7.67479C23.1778 7.41287 23.772 7.57211 24.0494 8.0347L24.3619 8.55574C24.5205 8.82027 24.7923 8.9968 25.0985 9.03411L25.7016 9.10762C26.237 9.17288 26.6242 9.65102 26.5767 10.1883L26.5232 10.7935C26.4961 11.1007 26.6122 11.4033 26.838 11.6135L27.2827 12.0274C27.6775 12.3949 27.7097 13.0094 27.3555 13.4161L26.9565 13.8743C26.7539 14.1069 26.67 14.42 26.7291 14.7227L26.8456 15.319C26.949 15.8483 26.6139 16.3643 26.0882 16.4852L26.0002 16.5055V22.4751L22.0002 20.8751L18.0002 22.4751V16.81C17.6256 16.6381 17.3831 16.2446 17.4213 15.8129L17.4748 15.2077C17.5019 14.9004 17.3858 14.5979 17.16 14.3877L16.7153 13.9737C16.3205 13.6062 16.2883 12.9918 16.6425 12.5851L17.0415 12.1269C17.2441 11.8943 17.328 11.5812 17.2689 11.2785L17.1524 10.6822C17.049 10.1528 17.3841 9.63684 17.9098 9.51597L18.5019 9.37983C18.8025 9.31071 19.0544 9.10674 19.1845 8.82708L19.4407 8.27623C19.6683 7.78718 20.2426 7.56669 20.739 7.77789L21.298 8.01577C21.5818 8.13654 21.9055 8.11958 22.1751 7.9698L22.7062 7.67479ZM24.8135 17.1741C24.8608 17.0724 24.9242 16.9808 25.0002 16.902V20.998L22.0002 19.798L19.0002 20.998V16.9846C19.2647 17.0447 19.4951 17.2103 19.6361 17.4454L19.9486 17.9665C20.226 18.4291 20.8203 18.5883 21.2918 18.3264L21.8229 18.0314C22.0925 17.8816 22.4162 17.8646 22.7 17.9854L23.2591 18.2233C23.7554 18.4345 24.3298 18.214 24.5573 17.7249L24.8135 17.1741ZM4.00018 9.5C4.00018 9.22386 4.22404 9 4.50018 9H13.5002C13.7763 9 14.0002 9.22386 14.0002 9.5C14.0002 9.77614 13.7763 10 13.5002 10H4.50018C4.22404 10 4.00018 9.77614 4.00018 9.5ZM4.50018 13C4.22404 13 4.00018 13.2239 4.00018 13.5C4.00018 13.7761 4.22404 14 4.50018 14H9.50018C9.77633 14 10.0002 13.7761 10.0002 13.5C10.0002 13.2239 9.77633 13 9.50018 13H4.50018ZM23.2502 13C23.2502 13.6904 22.6905 14.25 22.0002 14.25C21.3098 14.25 20.7502 13.6904 20.7502 13C20.7502 12.3096 21.3098 11.75 22.0002 11.75C22.6905 11.75 23.2502 12.3096 23.2502 13ZM24.2502 13C24.2502 14.2426 23.2428 15.25 22.0002 15.25C20.7575 15.25 19.7502 14.2426 19.7502 13C19.7502 11.7574 20.7575 10.75 22.0002 10.75C23.2428 10.75 24.2502 11.7574 24.2502 13Z" fill="#DDDDDD"/>
</svg>
