<svg width="30" height="30" viewBox="0 0 30 30" fill="none" xmlns="http://www.w3.org/2000/svg">
<path fill-rule="evenodd" clip-rule="evenodd" d="M5.25 11.5L4.125 7H25.875L24.75 11.5H5.25ZM5.4 12.5L4.1 19H13H17H25.9L24.6 12.5H5.4ZM17 20H13V21H17V20ZM12 20H4V24C4 25.1046 4.89543 26 6 26H24C25.1046 26 26 25.1046 26 24V20H18V21C18 21.5523 17.5523 22 17 22H13C12.4477 22 12 21.5523 12 21V20ZM25.8 6H4.2L4.49711 5.25722C4.80084 4.4979 5.53626 4 6.35406 4H23.6459C24.4637 4 25.1992 4.4979 25.5029 5.25722L25.8 6Z" fill="#DDDDDD"/>
</svg>
