<svg width="30" height="30" viewBox="0 0 30 30" fill="none" xmlns="http://www.w3.org/2000/svg">
<path fill-rule="evenodd" clip-rule="evenodd" d="M11.5006 7.5C11.5006 5.2329 13.1205 3.5 15.0006 3.5C16.8808 3.5 18.5006 5.2329 18.5006 7.5V8H11.5006V7.5ZM10.5006 8V7.5C10.5006 4.7946 12.4608 2.5 15.0006 2.5C17.5405 2.5 19.5006 4.7946 19.5006 7.5V8H22.2007C22.7123 8 23.1414 8.38621 23.1951 8.89503L24.5257 21.5H5.47565L6.80617 8.89503C6.85988 8.38621 7.289 8 7.80065 8H10.5006ZM24.7674 23.7901C24.892 24.9711 23.9661 26 22.7784 26H7.22287C6.03524 26 5.10925 24.9711 5.23392 23.7901L5.37009 22.5H24.6312L24.7674 23.7901Z" fill="white"/>
</svg>
