<svg width="16" height="16" viewBox="0 0 16 16" fill="none" xmlns="http://www.w3.org/2000/svg">
    <g clip-path="url(#clip0_4240_19399)">
        <circle cx="8" cy="8" r="7.5" fill="white" stroke="#D9D9D9"/>
        <path d="M6.93359 9.69043V9.75488H8.0293V9.69043C8.04541 8.81494 8.29785 8.42822 8.94238 8.03613C9.62451 7.61719 10.0381 7.04248 10.0381 6.17773C10.0381 4.95312 9.10352 4.11523 7.70703 4.11523C6.42871 4.11523 5.39746 4.86182 5.35449 6.23145H6.51465C6.56299 5.43652 7.12695 5.08203 7.70703 5.08203C8.35156 5.08203 8.86719 5.50635 8.86719 6.17773C8.86719 6.7417 8.52344 7.13916 8.07227 7.41309C7.36328 7.85352 6.94971 8.2832 6.93359 9.69043ZM6.76172 11.3125C6.75635 11.7314 7.10547 12.0698 7.52441 12.0752C7.93799 12.0698 8.28174 11.7314 8.28711 11.3125C8.28174 10.8936 7.93799 10.5498 7.52441 10.5498C7.10547 10.5498 6.75635 10.8936 6.76172 11.3125Z" fill="#999999"/>
    </g>
    <defs>
        <clipPath id="clip0_4240_19399">
            <rect width="16" height="16" fill="white"/>
        </clipPath>
    </defs>
</svg>
